<?xml version="1.0" standalone="no"?>
<!DOCTYPE svg PUBLIC "-//W3C//DTD SVG 20010904//EN"
 "http://www.w3.org/TR/2001/REC-SVG-20010904/DTD/svg10.dtd">
<svg version="1.0" xmlns="http://www.w3.org/2000/svg"
 width="485.000000pt" height="485.000000pt" viewBox="0 0 485.000000 485.000000"
 preserveAspectRatio="xMidYMid meet">
<metadata>
Created by potrace 1.11, written by Peter Selinger 2001-2013
</metadata>
<g transform="translate(0.000000,485.000000) scale(0.100000,-0.100000)"
fill="#000000" stroke="none">
<path d="M2248 4474 c-2 -1 -41 -5 -88 -8 -116 -9 -138 -13 -233 -36 -427
-108 -799 -340 -1080 -673 -144 -172 -312 -469 -380 -672 -35 -106 -70 -247
-81 -330 -3 -22 -10 -69 -15 -105 -10 -66 -7 -417 3 -480 3 -19 8 -53 11 -75
9 -58 25 -127 53 -230 154 -560 569 -1053 1093 -1299 57 -27 113 -52 124 -57
11 -4 36 -14 55 -22 96 -41 332 -96 485 -114 133 -15 429 -8 555 13 194 32
408 101 585 189 116 57 276 155 344 211 250 203 365 335 516 595 151 257 216
430 265 700 16 88 18 145 16 364 -2 143 -6 275 -9 293 -24 128 -54 249 -84
336 -59 169 -178 393 -311 586 -294 426 -849 753 -1367 806 -66 6 -452 14
-457 8z m252 -440 c25 -4 70 -23 100 -42 59 -37 165 -142 175 -173 4 -10 11
-19 16 -19 5 0 9 -6 9 -13 0 -24 -167 -80 -273 -93 -121 -14 -264 0 -371 37
-84 29 -118 48 -109 62 41 69 136 165 201 203 49 29 140 53 182 49 14 -2 45
-6 70 -11z m-1090 -609 c0 -11 -78 -182 -112 -245 -93 -172 -246 -395 -261
-381 -4 4 -19 41 -33 81 -72 206 -32 368 116 464 50 33 148 69 210 78 37 6 80
7 80 3z m2180 -21 c188 -53 291 -181 284 -351 -3 -62 -27 -158 -54 -221 l-20
-46 -66 90 c-37 49 -91 131 -121 183 -67 112 -183 353 -176 364 6 10 83 0 153
-19z m-975 -41 c295 -62 547 -258 673 -523 78 -165 113 -363 90 -515 -4 -27
-10 -66 -12 -85 -21 -156 -140 -380 -270 -505 -94 -92 -214 -170 -321 -210
-27 -10 -56 -23 -62 -28 -7 -5 -13 -7 -13 -4 0 3 -16 1 -36 -5 -141 -38 -285
-43 -439 -13 -47 9 -121 32 -145 45 -12 6 -29 13 -39 15 -9 2 -32 12 -51 24
-19 11 -46 25 -59 31 -35 16 -149 106 -200 159 -315 327 -363 832 -113 1204
131 195 345 345 576 402 111 27 312 31 421 8z m-1497 -1341 c64 -51 131 -126
177 -196 45 -69 102 -190 110 -235 3 -17 9 -40 13 -53 5 -13 10 -47 11 -76 l2
-54 -63 6 c-248 25 -398 163 -398 366 0 107 63 301 93 284 7 -4 32 -23 55 -42z
m2691 11 c63 -124 78 -285 37 -384 -54 -131 -201 -223 -378 -235 -57 -4 -65 0
-58 31 1 6 3 24 5 40 25 207 157 427 339 563 16 12 31 22 33 22 1 0 11 -17 22
-37z m-1114 -978 c28 -3 60 -8 73 -11 l23 -5 -23 -32 c-49 -70 -139 -149 -206
-180 -57 -27 -78 -32 -142 -32 -65 0 -85 5 -140 32 -72 35 -131 85 -185 153
-42 54 -43 65 -7 68 15 2 61 6 102 11 82 9 425 6 505 -4z"/>
</g>
</svg>
